<svg xmlns="http://www.w3.org/2000/svg" viewBox="0 0 600 300"><path fill="#f9a908" fill-rule="evenodd" d="M83.01 127.12 9.42 112.31c-5.1-1.03-10.38.56-14.07 4.22-6.12 6.07-6.16 15.95-.09 22.07 2.18 2.2 4.97 3.7 8.01 4.31l73.59 14.81c8.45 1.7 16.68-3.77 18.38-12.23.61-3.04.31-6.18-.88-9.05a15.62 15.62 0 0 0-11.34-9.34"/><path fill="none" stroke="#fff" stroke-width="3.89" d="M83.39 125.22a17.51 17.51 0 0 1 12.75 10.5c1.33 3.43 1.61 6.96.95 10.25-.68 3.38-2.35 6.49-4.81 8.92-4.42 4.22-10.23 5.87-15.82 4.74L2.87 144.82a17.51 17.51 0 0 1-12.75-10.5c-1.33-3.43-1.61-6.96-.95-10.25.68-3.38 2.36-6.49 4.81-8.92 4.42-4.22 10.23-5.87 15.82-4.74z"/><path fill="#ffe161" fill-rule="evenodd" d="m17.52 140.86-10.15-2.02c-5.87-1.17-9.68-6.88-8.51-12.74 1.17-5.87 6.87-9.68 12.74-8.51l10.15 2.02c5.87 1.17 9.68 6.88 8.51 12.74s-6.88 9.68-12.74 8.51"/><path stroke="#272727" stroke-width=".78" d="M10.3 122c-.44-.06-.89 0-1.59.26l-3.37 1.28c-.62.23-.79.86-.58 1.41.22.58.77.94 1.43.68l2.58-1.02-1.39 9.57c-.1.7.41 1.1 1.04 1.19s1.23-.15 1.33-.84l1.64-11.32c.1-.71-.39-1.1-1.09-1.2Zm9.48 1.29c-3.42-.5-5.25 1.6-5.84 5.66l-.11.79c-.59 4.07.57 6.59 3.98 7.09 3.42.5 5.25-1.6 5.84-5.66l.11-.79c.59-4.07-.57-6.59-3.98-7.09Zm-.33 2.24c1.92.28 2.35 1.63 1.9 4.68l-.07.47c-.44 3.05-1.23 4.22-3.16 3.93-1.92-.28-2.35-1.63-1.9-4.68l.07-.47c.44-3.05 1.23-4.22 3.16-3.93Z"/><path fill="#fff" stroke="#fff" stroke-width="3.11" d="M47.13 128.22c-.51-.39-1.13-.35-1.59.16l-3.43 3.97-2.1-4.76c-.28-.65-.95-.88-1.59-.65-.68.24-1.03.89-.72 1.54l2.58 5.23-4.36 4.63c-.47.5-.35 1.16.15 1.57.49.39 1.19.35 1.62-.15l3.74-4.21 2.37 5.14c.29.63.98.78 1.56.54.66-.28.88-.89.56-1.54l-2.71-5.52 4.05-4.37c.5-.55.38-1.17-.16-1.59Z"/><path fill="#ffe161" fill-rule="evenodd" d="m74.53 152.18-10.15-2.02c-5.87-1.17-9.68-6.88-8.51-12.74 1.17-5.87 6.87-9.68 12.74-8.51l10.15 2.02c5.87 1.17 9.68 6.88 8.51 12.74-1.17 5.87-6.88 9.68-12.74 8.51"/><path stroke="#272727" stroke-width=".78" d="M67.81 132.94c-.44-.06-.89 0-1.59.26l-3.37 1.28c-.62.23-.79.86-.58 1.41.22.58.77.94 1.43.68l2.58-1.02-1.39 9.57c-.1.71.41 1.1 1.04 1.19s1.23-.15 1.33-.84l1.64-11.32c.1-.7-.39-1.1-1.09-1.19Zm9.47 1.28c-3.42-.5-5.25 1.6-5.84 5.66l-.11.79c-.59 4.07.57 6.59 3.98 7.09s5.25-1.6 5.84-5.66l.11-.79c.59-4.07-.57-6.59-3.98-7.09Zm-.32 2.23c1.92.28 2.35 1.63 1.9 4.68l-.07.47c-.44 3.05-1.23 4.22-3.16 3.93s-2.35-1.63-1.9-4.68l.07-.47c.44-3.05 1.23-4.22 3.16-3.93Z"/><path fill="#8947ff" fill-rule="evenodd" stroke="#fff" stroke-linejoin="round" stroke-width="3.22" d="M48.35-12.25 53.3-1.48l9.29-7.31 2.03 11.71 10.94-4.59-1.31 11.89 11.92-1.09-5.14 10.94 11.7 3.37-9.19 8.1 9.18 8.21-11.9 3.08 4.5 11.43-11.94-2.38-.38 12.1-10.12-6.45-4.23 11.18-7.66-9.11-7.12 9.48-4.95-10.78-9.29 7.31L27.6 53.9l-10.94 4.59 1.31-11.89-11.92 1.09 5.14-10.94-11.7-3.36 9.19-8.1-9.18-8.2 11.9-3.08L6.89 2.58l11.94 2.38.38-12.1L29.34-.7l4.23-11.18 7.66 9.11 7.12-9.48Z"/><path fill="#fff" fill-rule="evenodd" d="m16.41 15.01 6.16 1.49-1.05 8.81 5.58-7.71 5.54 1.34-1.07 8.8 5.58-7.71 3.07.74-8.8 11.13-6.07-1.47.46-6.61-4.46 5.64-6.07-1.47zM43.2 33.18c.47.12.96-.05 1.44-.5s.92-1.04 1.32-1.76c.39-.72.75-1.49 1.05-2.3s.54-1.52.68-2.13c.13-.54.18-.96.13-1.26-.04-.3-.23-.49-.57-.58-.52-.13-1.03.04-1.54.51s-.97 1.05-1.39 1.76c-.42.72-.78 1.46-1.07 2.23-.3.78-.51 1.41-.63 1.91-.3 1.24-.12 1.95.55 2.11m4.61-10.46c2.28.55 3.83 1.35 4.67 2.4.88 1.11 1.1 2.64.63 4.59-.29 1.21-.75 2.24-1.39 3.11s-1.39 1.53-2.27 1.98c-1.75.88-4 .97-6.76.31-2.35-.57-3.92-1.42-4.73-2.57-.87-1.2-1.07-2.74-.62-4.61.3-1.24.82-2.31 1.58-3.2.75-.89 1.72-1.58 2.81-1.99 1.63-.6 3.65-.61 6.08-.02m7.79 2.22 6.08 1.47-1.03 8.68 5.51-7.6 5.48 1.32-1.06 8.67 5.51-7.6 3.04.73-8.69 10.96-6-1.45.45-6.51-4.41 5.55-6-1.45 1.12-12.79Z"/><path fill="#a5ffff" fill-rule="evenodd" stroke="#000" stroke-linejoin="round" stroke-width="2.47" d="m176.42 129.4 2.83 15.14 9.46 3.62-9.78 2.61-4.4 14.76-2.84-15.14-9.46-3.62 9.78-2.61 4.4-14.76z"/><path fill="#a5ffff" fill-rule="evenodd" stroke="#000" stroke-linejoin="round" stroke-width="2.36" d="m154.71 107.91 2.33 12.94 7.78 3.05-8.05 2.22-3.68 12.63-2.33-12.94-7.78-3.05 8.05-2.22z"/><path fill="#f6f6f6" fill-rule="evenodd" stroke="#000" stroke-width="2.31" d="m201.15 230.57-5.96-5.48c-2.96-2.73-3.16-7.34-.43-10.3s5.57-6.06 5.57-6.06c.68-.73 1.76-.91 2.64-.42 3.58 1.94 8.15 1.29 11.03-1.85a9.1 9.1 0 0 0 .92-11.14c-.55-.83-.47-1.92.21-2.66l5.57-6.06c2.73-2.96 7.34-3.16 10.3-.43l5.96 5.48c.77.71 1.92.75 2.76.14a9.1 9.1 0 0 1 11.53.65c3.25 2.99 3.83 7.81 1.61 11.44-.55.89-.4 2.03.36 2.74l5.96 5.48c2.96 2.73 3.16 7.34.43 10.3s-5.48 5.96-5.48 5.96c-.71.77-1.85.91-2.74.36a9.09 9.09 0 0 0-11.44 1.61c-2.98 3.24-3.54 6.71-1.06 10.13.18.25.49.87.8 1.46.43.81.3 1.8-.32 2.47l-5.68 6.18c-2.73 2.96-7.34 3.16-10.3.43l-5.96-5.48c-.77-.71-1.92-.75-2.76-.14a9.1 9.1 0 0 1-11.53-.65c-3.26-3-3.83-7.81-1.61-11.44.55-.89.4-2.03-.36-2.74"/><path fill="none" d="m198.84 230.57-5.96-5.48c-2.96-2.73-3.16-7.34-.43-10.3s5.57-6.06 5.57-6.06c.68-.73 1.76-.91 2.64-.42 3.58 1.94 8.15 1.29 11.03-1.85a9.1 9.1 0 0 0 .92-11.14c-.55-.83-.47-1.92.21-2.66l5.57-6.06c2.73-2.96 7.34-3.16 10.3-.43l5.96 5.48c.77.71 1.92.75 2.76.14a9.1 9.1 0 0 1 11.53.65c3.25 2.99 3.83 7.81 1.61 11.44-.55.89-.4 2.03.36 2.74l5.96 5.48c2.96 2.73 3.16 7.34.43 10.3s-5.48 5.96-5.48 5.96c-.71.77-1.85.91-2.74.36a9.09 9.09 0 0 0-11.44 1.61c-2.98 3.24-3.54 6.71-1.06 10.13.18.25.49.87.8 1.46.43.81.3 1.8-.32 2.47l-5.68 6.18c-2.73 2.96-7.34 3.16-10.3.43l-5.96-5.48c-.77-.71-1.92-.75-2.76-.14a9.1 9.1 0 0 1-11.53-.65c-3.26-3-3.83-7.81-1.61-11.44.55-.89.4-2.03-.36-2.74"/><path fill="#ffa3f6" fill-rule="evenodd" d="m197.24 227.85-5.96-5.48c-2.96-2.73-3.16-7.34-.43-10.3l5.57-6.06c.68-.73 1.76-.91 2.64-.42 3.58 1.94 8.15 1.29 11.03-1.85s3.15-7.74.92-11.14c-.55-.83-.47-1.92.21-2.66l5.57-6.05c2.73-2.96 7.34-3.16 10.3-.43l5.96 5.48c.77.71 1.92.75 2.76.14a9.1 9.1 0 0 1 11.53.65c3.26 3 3.83 7.81 1.61 11.44-.55.89-.4 2.03.36 2.74l5.96 5.48c2.96 2.73 3.16 7.34.43 10.3s-5.48 5.96-5.48 5.96c-.71.77-1.85.91-2.74.36a9.09 9.09 0 0 0-11.44 1.61c-3 3.26-3.16 8.1-.65 11.53.62.84.57 1.99-.13 2.76l-5.48 5.96c-2.73 2.96-7.34 3.16-10.3.43s-5.96-5.48-5.96-5.48c-.77-.71-1.92-.75-2.76-.14a9.1 9.1 0 0 1-11.53-.65c-3.26-3-3.83-7.81-1.61-11.44.55-.89.4-2.03-.36-2.74"/><path fill="none" stroke="#000" stroke-linecap="round" stroke-linejoin="round" stroke-width="2.31" d="m197.24 227.85-5.96-5.48c-2.96-2.73-3.16-7.34-.43-10.3h0l5.57-6.06c.68-.73 1.76-.91 2.64-.42 3.58 1.94 8.15 1.29 11.03-1.85s3.15-7.74.92-11.14c-.55-.83-.47-1.92.21-2.66l5.57-6.05c2.73-2.96 7.34-3.16 10.3-.43h0l5.96 5.48c.77.71 1.92.75 2.76.14a9.1 9.1 0 0 1 11.53.65c3.26 3 3.83 7.81 1.61 11.44-.55.89-.4 2.03.36 2.74l5.96 5.48c2.96 2.73 3.16 7.34.43 10.3h0l-5.48 5.96c-.71.77-1.85.91-2.74.36a9.09 9.09 0 0 0-11.44 1.61c-3 3.26-3.16 8.1-.65 11.53.62.84.57 1.99-.13 2.76l-5.48 5.96c-2.73 2.96-7.34 3.16-10.3.43h0l-5.96-5.48c-.77-.71-1.92-.75-2.76-.14a9.1 9.1 0 0 1-11.53-.65c-3.26-3-3.83-7.81-1.61-11.44.55-.89.4-2.03-.36-2.74"/><path fill="#c338ff" fill-rule="evenodd" d="m225.89 209.75-5.07-5.07a.85.85 0 0 0-1.2 0c-.03.03-.06.07-.09.11l-7.5 10.44c-.27.38-.8.47-1.18.19a.7.7 0 0 1-.22-.24l-.7-1.11a.846.846 0 0 0-1.17-.27c-.15.09-.26.23-.33.38l-4.47 10.19c-.29.65.32 1.36 1.01 1.15l10.77-3.08c.45-.13.71-.6.58-1.05a.9.9 0 0 0-.28-.43l-.96-.76a.844.844 0 0 1-.14-1.19c.05-.07.1-.12.16-.16l10.7-7.82c.38-.28.46-.81.18-1.19-.02-.04-.05-.07-.08-.1"/><path fill="none" stroke="#000" stroke-linecap="round" stroke-linejoin="round" stroke-width="1.54" d="m225.89 209.75-5.07-5.07a.85.85 0 0 0-1.2 0c-.03.03-.06.07-.09.11l-7.5 10.44c-.27.38-.8.47-1.18.19a.7.7 0 0 1-.22-.24l-.7-1.11a.846.846 0 0 0-1.17-.27c-.15.09-.26.23-.33.38l-4.47 10.19c-.29.65.32 1.36 1.01 1.15l10.77-3.08c.45-.13.71-.6.58-1.05a.9.9 0 0 0-.28-.43l-.96-.76a.844.844 0 0 1-.14-1.19h0c.05-.07.1-.12.16-.16l10.7-7.82c.38-.28.46-.81.18-1.19-.02-.04-.05-.07-.08-.1"/><path fill="#c338ff" fill-rule="evenodd" d="m222.99 220.63 5.38 4.75c.35.31.89.28 1.19-.08.03-.03.05-.07.08-.11l6.84-10.89a.854.854 0 0 1 1.41-.05l.77 1.06a.858.858 0 0 0 1.49-.2l3.83-10.44c.25-.67-.4-1.33-1.08-1.09l-10.56 3.74c-.44.16-.67.64-.52 1.08.06.17.17.31.31.41l1.01.7c.38.27.48.79.22 1.18-.05.06-.09.12-.15.17l-10.19 8.47c-.36.3-.41.83-.11 1.19l.09.09"/><path fill="none" stroke="#000" stroke-linecap="round" stroke-linejoin="round" stroke-width="1.54" d="m222.99 220.63 5.38 4.75c.35.31.89.28 1.19-.08.03-.03.05-.07.08-.11l6.84-10.89a.854.854 0 0 1 1.41-.05l.77 1.06a.858.858 0 0 0 1.49-.2l3.83-10.44c.25-.67-.4-1.33-1.08-1.09l-10.56 3.74c-.44.16-.67.64-.52 1.08.06.17.17.31.31.41l1.01.7c.38.27.48.79.22 1.18-.05.06-.09.12-.15.17l-10.19 8.47c-.36.3-.41.83-.11 1.19l.09.09"/><path fill="#fd0" fill-rule="evenodd" d="M291.84 290.34c12.51-.16 22.15-1.72 22.15-1.72s-9.59-1.77-22.09-2.19c5.07-5.36 8.31-9.86 8.31-9.86s-4.57 3.15-10.04 8.11c-.16-12.51-1.72-22.14-1.72-22.14s-1.77 9.6-2.19 22.11c-5.36-5.07-9.87-8.32-9.87-8.32s3.15 4.57 8.1 10.03c-12.51.16-22.13 1.72-22.13 1.72s9.6 1.77 22.11 2.19c-5.08 5.36-8.33 9.88-8.33 9.88s4.57-3.15 10.05-8.12c.16 12.5 1.72 22.12 1.72 22.12s1.76-9.58 2.19-22.07c5.36 5.07 9.87 8.32 9.87 8.32s-3.15-4.58-8.12-10.05"/><path fill="#fff" fill-rule="evenodd" d="M375.44 28.18c3.36 15.82.7 29.78-5.96 31.19s-14.77-10.26-18.13-26.08c-3.37-15.82-.7-29.78 5.96-31.19 6.65-1.41 14.77 10.26 18.13 26.08"/><path fill="none" stroke="#fff" stroke-linecap="round" stroke-linejoin="round" stroke-width="9.64" d="M375.44 28.18c3.36 15.82.7 29.78-5.96 31.19s-14.77-10.26-18.13-26.08c-3.37-15.82-.7-29.78 5.96-31.19 6.65-1.41 14.77 10.26 18.13 26.08"/><path fill="#fff" fill-rule="evenodd" d="M406.81 21.52c3.36 15.81.7 29.78-5.96 31.19-6.65 1.42-14.77-10.26-18.13-26.08-3.36-15.81-.7-29.78 5.96-31.19s14.77 10.26 18.13 26.08"/><path fill="none" stroke="#fff" stroke-linecap="round" stroke-linejoin="round" stroke-width="9.64" d="M406.81 21.52c3.36 15.81.7 29.78-5.96 31.19-6.65 1.42-14.77-10.26-18.13-26.08-3.36-15.81-.7-29.78 5.96-31.19s14.77 10.26 18.13 26.08"/><path fill="none" stroke="#000" stroke-width="3.86" d="M375.44 28.18c3.36 15.82.7 29.78-5.96 31.19s-14.77-10.26-18.13-26.08c-3.37-15.82-.7-29.78 5.96-31.19 6.65-1.41 14.77 10.26 18.13 26.08Z"/><path fill-rule="evenodd" d="M371.77 43.93c1.68 7.91-.24 15.01-4.29 15.88s-8.7-4.85-10.39-12.76c-1.68-7.91.24-15.01 4.29-15.88s8.7 4.85 10.39 12.76"/><path fill="none" stroke="#000" stroke-width="3.86" d="M406.81 21.52c3.36 15.81.7 29.78-5.96 31.19-6.65 1.42-14.77-10.26-18.13-26.08-3.36-15.81-.7-29.78 5.96-31.19s14.77 10.26 18.13 26.08Z"/><path fill-rule="evenodd" d="M403.14 37.26c1.68 7.91-.24 15.01-4.29 15.88s-8.7-4.85-10.39-12.76c-1.68-7.91.24-15.01 4.29-15.88s8.7 4.85 10.39 12.76"/><path fill="#fff18a" fill-rule="evenodd" d="m96.66 201.95-1.62 11.84-5.5-.75.37-2.69-.53-.07-.37 2.69-5.5-.75 1.62-11.84 5.5.75-.37 2.69.53.07.37-2.69zm7.92 15.9-8.7-3.68 4.66-11 8.7 3.68-1.4 3.3-4.47-1.89-.21.5 4.47 1.89-1.44 3.4-4.47-1.89-.21.5 4.47 1.89zm8.43 6.09-7.56-5.58 7.08-9.6 4.43 3.27-4.56 6.18 3.13 2.31zm6.53 7.61-6.1-7.15 9.08-7.75 3.57 4.18-5.84 4.99 2.53 2.97-3.23 2.75Zm7.98.97-.49-.06c.02 1.28.58 2.75 1.2 4.05l.41-.2c-.64-1.3-1.08-2.64-1.12-3.78m-2.31-3.32c3.67-1.79 6.65-.51 8.1 2.46 1.46 2.99.62 6.12-3.05 7.91s-6.65.52-8.1-2.48c-1.45-2.98-.63-6.1 3.06-7.9M126.96 257.11l-.77-9.41 11.91-.97.77 9.41-3.58.29-.4-4.84-.53.04.4 4.84-3.68.3-.4-4.84-.53.04.4 4.84-3.58.29ZM136.8 271.41l-11.76-2.1 1.06-5.92 4.17-.5-3.96-.71.73-4.12 11.76 2.1-1.06 5.94-4.97.77.04.43 2.99-.49 1.76.32-.77 4.29Zm-1.23 3.68-4.75 9.86-3.51-1.69 1.25-2.59-7.25-3.5 2.26-4.68 7.25 3.5 1.25-2.59 3.51 1.69Zm-12.37 13.36-.11-.46c-.97.29-2.46 1.57-3.21 2.44l.33.28c.75-.87 2.16-1.99 2.99-2.26m-4.99 4.81c-1.12-.96-1.45-1.96-1.51-2.99l-4.28-1.52 3.43-3.98 2.83 1.13-2.2-1.9 3.19-3.7 9.06 7.79-3.06 3.55c-2.85 3.31-5.14 3.61-7.47 1.63m-2.56 7.68-2-1.3-.53-2.18-.4.15 1.12 4.6-4.09 2.84-1.66-8.51-2.28-3.29 4.28-2.98 2.27 3.26 7.68 4.36-4.39 3.06Zm-15.46 3.09-.39 3.67-2.68-.86 1.05 2.51-4.14.98-.13-2.17 1.67-1.48-.29-.37-3.47 3.12-1.96-2.96 2.44-1.2-2.17-1.62 2.11-2.76 2.19 2.13 1.04-2.75 3.33 1.47-1.12 2.28h2.51ZM69.74 309.99l1.67-11.83 5.49.78-.38 2.69.53.07.38-2.69 5.49.78-1.67 11.83-5.49-.78.38-2.69-.53-.08-.38 2.69-5.49-.78ZM61.88 294.06l8.68 3.72-4.71 10.98-8.68-3.72 1.42-3.3 4.46 1.91.21-.49-4.46-1.91 1.46-3.4 4.46 1.91.21-.49-4.46-1.91 1.42-3.3Zm-8.4-6.13 7.54 5.61-7.13 9.57-4.41-3.29 4.59-6.16-3.13-2.33 2.53-3.41Zm-6.5-7.64 6.07 7.17-9.11 7.7-3.55-4.2 5.86-4.96-2.51-2.98 3.24-2.75ZM39 279.28l.49.07c0-1.28-.56-2.75-1.2-4.06l-.42.19c.63 1.31 1.07 2.64 1.12 3.79m2.31 3.34c-3.67 1.77-6.65.49-8.08-2.5-1.44-3-.59-6.13 3.08-7.9s6.65-.49 8.09 2.51c1.43 2.98.6 6.1-3.09 7.88m-1.64-27.9.73 9.41-11.91.92-.73-9.41 3.58-.27.38 4.84.53-.04-.38-4.84 3.68-.28.37 4.84.53-.04-.37-4.84 3.58-.27Zm-9.77-14.35 11.75 2.15-1.08 5.92-4.17.48 3.95.73-.75 4.12-11.75-2.15 1.09-5.93 4.97-.75-.04-.43-2.99.48-1.76-.32.79-4.29Zm1.24-3.67 4.79-9.83 3.5 1.71-1.26 2.59 7.23 3.53-2.28 4.67-7.23-3.52-1.26 2.58-3.5-1.71Zm12.43-13.3.11.46c.97-.28 2.47-1.56 3.21-2.43l-.32-.28c-.75.87-2.17 1.98-3 2.25m5.01-4.8c1.11.97 1.45 1.97 1.51 3l4.27 1.54-3.44 3.97-2.83-1.14 2.2 1.91-3.21 3.69-9.02-7.84 3.07-3.54c2.87-3.3 5.16-3.6 7.48-1.6m2.58-7.66 2 1.31.52 2.19.4-.15-1.11-4.6 4.1-2.82 1.62 8.51 2.27 3.29-4.29 2.96-2.25-3.27-7.66-4.39 4.4-3.04Zm15.47-3.02.4-3.67 2.68.87-1.04-2.51 4.14-.97.12 2.17-1.68 1.47.29.37 3.48-3.1 1.95 2.97-2.45 1.2 2.17 1.63-2.12 2.75-2.18-2.14-1.05 2.74-3.33-1.49 1.13-2.28h-2.51Z"/><path fill="#fff" fill-rule="evenodd" d="M71.85 224.21q3.99-3.18 11.13-.24c4.76 1.97 6.38 5.98 4.84 12.06l8.03 3.68c2.82-3.83 6.6-5.24 11.36-4.23s7.54 4.45 8.36 10.33l-6.16 1.51c-4.04-5.96-7.18-7.37-9.43-4.22-.82 1.15.58 1.26 1.1 1.45 1.64.6 6.53-.25 5.81 14.6-.63 13.11-1.97 19.44-4.04 18.99-5.73 6.48-12.03 8.21-18.89 5.2-10.29-4.52-25.33-9.09-27.77-18.66-2.43-9.56-1.34-13.79 4.07-19.18s8.34-12.11 17.1-10.96c5.84.76 7.71.92 5.62.48.49-3.65-2.55-5.12-9.12-4.4-3.12.35-3.85-.89-4.32-1.82-.35-.7.43-2.22 2.29-4.58"/><path fill="#00a3fd" fill-rule="evenodd" d="M99.78 279.16c-5.42 4.67-13.1 4.15-19.15 1.59-.84-.35-1.69-.72-2.54-1.08-3.93-1.66-7.73-3.5-11.56-5.41-5.89-2.94-11.26-8.44-11.24-15.59 0-2.75 1-5.46 2.51-7.73 1.6-2.42 2.47-3.44 4.9-4.85 1.2-.7 1.67-2.51 2.46-3.6 1.04-1.44 2.29-2.74 3.73-3.78 3.26-2.36 7.29-3.26 11.27-3.14 1.61.05 3.21.25 4.8.58 3.09.65 6.92 2.2 9.58 3.89 2.12 1.33 4.06 2.95 5.75 4.8 2.67 2.95 5.51 7 5.84 11.02.14 1.78-.04 3.57-.45 5.3-.32 1.3-1.38 2.85-1.14 4.22.5 2.76.29 4.09-.5 6.87-.75 2.62-2.17 5.14-4.25 6.93m-16.88-46.46c-.38-.99-1.04-1.71-1.98-2.13-1.33-.58-2.98-.46-4.38-.15-.04-.4-.24-.77-.55-1.03-.25-.21-.56-.3-.86-.34.41-.04.81-.24 1.09-.58.57-.7.47-1.72-.22-2.29-.31-.25-.7-.37-1.1-.35.36-.07.71-.25.97-.55.48-.58.5-1.42.04-2.02 1.23-.17 2.43-.19 3.56-.03 1.94.27 3.47.94 4.81 2.1.61.53 1.19 1.17 1.76 1.95.39.53.76 1.17 1.16 2.02.51 1.07.81 3.03.57 4.79-1.53-.42-3.1-.69-4.68-.82-.04-.19-.11-.38-.17-.57m18.44 3.13c.9-.24 1.64-.38 2.28-.43.97-.07 1.82-.04 2.63.07 1.75.26 3.25.99 4.72 2.29.86.76 1.62 1.67 2.29 2.72-.75.04-1.38.6-1.51 1.35-.07.39.02.77.2 1.09-.24-.32-.59-.54-.98-.61a1.64 1.64 0 0 0-1.63 2.54 1.497 1.497 0 0 0-1.94-.18c-.68-1.27-1.66-2.6-2.97-3.23-.92-.44-1.9-.49-2.91-.13-.19.07-.36.15-.54.24a27 27 0 0 0-3.66-3.01c1.17-1.32 2.83-2.37 4-2.69m7.6 30.85c1.28-5.89.85-11.6-1.15-15.67-1.65-3.35-3.72-6.33-6.07-8.79.05-.03.12-.04.16-.06.77-.27 1.49-.24 2.19.09 1.9.92 3.06 3.79 3.48 4.98.4 1.17 1.26 2.12 2.38 2.64 1.05.49 2.26.55 3.35.16 2.35-.81 3.62-3.39 2.84-5.74-1.02-3.06-2.52-5.49-4.49-7.23-1.61-1.43-3.26-2.23-5.21-2.51-.87-.13-1.8-.16-2.83-.08-.72.05-1.5.19-2.46.46-1.36.36-3.26 1.56-4.55 3.07-.76-.48-1.56-.91-2.38-1.29l-.12-.05c-.66-.3-1.22-.54-1.38-.6-.46-.23-.93-.46-1.4-.67l-.14-.06c-.81-.37-1.64-.69-2.49-.95.32-2.03-.05-4.25-.63-5.46-.43-.9-.83-1.59-1.26-2.17-.62-.83-1.24-1.52-1.9-2.1-1.48-1.28-3.16-2.03-5.3-2.32-2.6-.36-5.44.07-8.42 1.28-2.29.94-3.43 3.58-2.51 5.89a4.46 4.46 0 0 0 2.39 2.49c1.1.48 2.35.5 3.46.05 1.17-.46 4.11-1.44 6.05-.59.71.32 1.2.84 1.49 1.6.02.04.04.11.05.16-3.4-.19-7.02.17-10.64 1.1-4.4 1.12-9.01 4.52-12.65 9.32-1.99 2.6-3.59 5.49-4.74 8.56-.57 1.54-1.03 3.11-1.36 4.72-.43 2.02-.29 4.38.4 7.22.43 1.78 1.35 3.55 2.83 5.39 2.28 2.84 4.82 4.89 8.55 6.85l15.9 7.32h.02c3.89 1.55 7.1 2.15 10.73 2.03 2.36-.08 4.3-.52 5.94-1.35 2.6-1.33 4.49-2.76 5.75-4.39 1-1.3 1.9-2.67 2.7-4.1 1.59-2.87 2.75-5.96 3.44-9.17"/><path fill="#ffbcb8" fill-rule="evenodd" d="M68.12 249.16c-3.45-1.59-7.55-.06-9.16 3.42s-.11 7.59 3.35 9.18c3.45 1.59 7.55.06 9.16-3.42s.1-7.59-3.36-9.18m30.56 14.08c-3.45-1.59-7.55-.06-9.15 3.42s-.11 7.59 3.35 9.18 7.55.06 9.16-3.42.1-7.59-3.36-9.18"/><path fill="#4c4c4c" fill-rule="evenodd" d="M81.05 261.3c.6.27 1.25.13 1.45-.33.2-.45-.1-1.04-.7-1.32s-1.25-.12-1.46.33.11 1.04.7 1.32m7.03 1.06c.81.37 1.74.06 2.09-.68l.09-.19c.35-.75-.03-1.66-.84-2.04-.81-.37-1.74-.06-2.09.68l-.09.19c-.35.75.03 1.66.84 2.04m-12.39-5.72c.81.37 1.74.06 2.09-.68l.09-.19c.35-.75-.03-1.66-.84-2.04s-1.74-.06-2.09.69l-.09.19c-.35.75.03 1.66.84 2.04m12.16 8.7c-.28.1-.45.39-.39.68-.13.12-.59.33-1.22.44-2.28.41-4.87-1.33-5.69-3.15a.59.59 0 0 0-.71-.33c-1.9.57-4.91-.28-6.08-2.28-.33-.55-.47-1.03-.46-1.21a.59.59 0 0 0 .21-.81.59.59 0 0 0-.72-.26c-.29.12-.51.35-.61.64-.25.72.24 1.72.55 2.25.61 1.04 1.59 1.82 2.68 2.32 1.39.64 2.98.85 4.28.6 1.18 2.05 4.06 3.86 6.75 3.39.61-.11 1.68-.39 2.07-1.04.16-.27.19-.58.09-.88a.585.585 0 0 0-.75-.37"/><path fill="none" stroke="#fff" stroke-linejoin="round" stroke-width="9.57" d="M491.62 234.43c-10.31 0-14.28 6.59-19.16 12.35-4.89-5.77-8.85-12.35-19.17-12.35-14.29 0-23.56 11.33-23.56 24.73 0 15.95 11.83 26.72 42.58 54.4.05.04.09.09.14.13.05-.04.09-.09.14-.13 30.75-27.68 42.58-38.45 42.58-54.4 0-13.4-9.27-24.73-23.56-24.73"/><path fill="#ff3d3d" fill-rule="evenodd" d="M491.62 234.34c-10.31 0-14.28 6.59-19.16 12.35-4.89-5.77-8.85-12.35-19.17-12.35-14.29 0-23.56 11.33-23.56 24.73 0 15.95 11.83 26.72 42.58 54.4.05.04.09.09.14.13.05-.04.09-.09.14-.13 30.75-27.68 42.58-38.45 42.58-54.4 0-13.4-9.27-24.73-23.56-24.73"/><path fill="#d72424" fill-rule="evenodd" d="M485.77 246.94c-7.15 0-9.89 4.57-13.28 8.57-3.39-4-6.13-8.57-13.28-8.57-9.9 0-16.32 7.87-16.32 17.16 0 11.08 8.2 18.55 29.5 37.77.03.03.07.06.1.09.03-.03.07-.06.1-.09 21.3-19.22 29.5-26.69 29.5-37.77 0-9.3-6.42-17.16-16.32-17.16" opacity=".8" style="isolation:isolate"/><path fill="#fff" d="M444.28 259.26c-.48 3.69-.55 11.33.03 14.82.3 1.81 1.41 2.76 3.24 3.02 2.46.33 6.45.35 9.24 0 1.83-.23 2.89-1.2 2.89-3.04s-1.06-2.71-2.86-2.99c-2.06-.33-4.67-.38-6.31-.17.3-2.41.2-8.72-.25-11.63-.3-1.96-1.61-2.66-2.99-2.66s-2.74.7-2.99 2.66m16.5-.01c-.48 3.69-.48 11.08.03 15.1.23 1.81 1.16 2.96 2.99 2.96s2.76-1.16 2.99-2.96c.51-4.02.51-11.4.03-15.1-.25-1.96-1.63-2.66-3.02-2.66s-2.76.7-3.02 2.66m24.02 13.44c-.55-1.54-2.29-4.19-4.42-6.51 2.06-1.96 3.61-3.92 4.15-5 .7-1.41.78-2.76-.63-3.92-1.46-1.18-3.02-.73-4.37.6-1.08 1.03-2.86 3.16-4.25 5.28-.07-1.48-.18-2.84-.3-3.89-.25-1.96-1.54-2.66-2.92-2.66s-2.79.7-3.04 2.66c-.48 3.69-.48 11.08.03 15.1.23 1.81 1.18 2.96 3.02 2.96s2.66-1.16 2.89-2.96c.15-1.18.25-2.66.33-4.29.3-.17.63-.35.93-.55.88 2.54 2.29 5 3.42 6.41 1.21 1.51 2.84 1.86 4.39.86 1.54-1.03 1.33-2.54.78-4.07m15.53-1.13c-1.86-.3-5.98-.3-7.26-.1l.07-1.81c1.91.15 3.79.15 5.77-.05 1-.1 2.41-.75 2.41-2.76s-1.41-2.54-2.41-2.64c-1.86-.17-3.74-.15-5.75 0l-.05-1.78c1.65.2 5.4.2 7.13-.15 1-.2 2.31-.73 2.31-2.74s-1.31-2.44-2.31-2.64c-1.86-.38-8.79-.38-10.1-.23-1.55.17-2.84.83-3.12 3.02-.43 3.42-.52 11.18.03 14.45.3 1.81 1.26 2.86 3.09 3.04 2.21.2 7.89.23 10.15-.2 1-.2 2.26-.75 2.26-2.76s-1.23-2.49-2.23-2.64"/><path fill="#f6f6f6" fill-rule="evenodd" d="M266.86 113.04c-1.05-4.49 1.21-8.86 5.04-9.75l-2.89-12.44c-.39-1.69.46-3.33 1.89-3.66l10.63-2.47c-.05-.17-.1-.34-.13-.51-1.05-4.49 1.21-8.86 5.04-9.75s7.79 2.03 8.83 6.52c.07.29.31.48.56.42l9.9-2.3c1.59-.37 3.24.85 3.67 2.71l2.83 12.11c-3.84.89-6.09 5.26-5.04 9.75s5.01 7.41 8.83 6.52l2.92 12.54c.38 1.64-.44 3.23-1.84 3.55l-10.7 2.49c-1.05-4.49-5.01-7.41-8.83-6.52-3.84.89-6.09 5.26-5.04 9.75l-10.7 2.49c-1.39.32-2.83-.73-3.22-2.37l-2.92-12.54c-3.84.89-7.78-2.03-8.83-6.52"/><path fill="none" stroke="#000" stroke-linecap="round" stroke-linejoin="round" stroke-width="2.85" d="M267.72 113.45c-1.05-4.49 1.22-8.86 5.04-9.75l-2.89-12.44c-.39-1.69.46-3.33 1.89-3.66l10.63-2.47c-.05-.17-.1-.34-.13-.51-1.05-4.49 1.22-8.86 5.04-9.75 3.83-.89 7.79 2.03 8.83 6.52h0c.07.29.31.48.56.42l9.9-2.3c1.6-.37 3.24.85 3.67 2.71l2.83 12.11c-3.84.89-6.09 5.26-5.04 9.75s5.01 7.41 8.84 6.52l2.92 12.54c.38 1.64-.44 3.22-1.84 3.55l-10.7 2.49c-1.05-4.49-5.01-7.41-8.83-6.52-3.84.89-6.09 5.26-5.04 9.75l-10.7 2.49c-1.39.32-2.83-.73-3.22-2.37l-2.92-12.54c-3.84.89-7.78-2.03-8.83-6.52"/><path fill="#ade0ff" fill-rule="evenodd" d="M263.64 115.27c-1.05-4.49 1.22-8.86 5.04-9.75l-2.89-12.44c-.39-1.69.46-3.33 1.89-3.66l10.63-2.47c-.05-.17-.1-.34-.13-.51-1.05-4.49 1.22-8.86 5.04-9.75s7.79 2.03 8.83 6.52c.07.29.31.48.56.42l9.9-2.3c1.6-.37 3.24.84 3.67 2.71l2.83 12.11c-3.84.89-6.09 5.26-5.04 9.75s5.01 7.41 8.83 6.52l2.92 12.54c.38 1.64-.44 3.22-1.84 3.54l-10.7 2.49c-1.05-4.49-5.01-7.41-8.83-6.52-3.84.89-6.09 5.26-5.04 9.75l-10.7 2.49c-1.39.32-2.83-.73-3.22-2.37l-2.92-12.54c-3.84.89-7.78-2.03-8.83-6.52"/><path fill="none" stroke="#000" stroke-linecap="round" stroke-linejoin="round" stroke-width="2.85" d="M262.78 114.87c-1.05-4.49 1.22-8.86 5.04-9.75l-2.89-12.44c-.39-1.69.46-3.33 1.89-3.66l10.63-2.47c-.05-.17-.1-.34-.13-.51-1.05-4.49 1.21-8.86 5.04-9.75s7.79 2.03 8.83 6.52h0c.07.29.31.48.56.42l9.9-2.3c1.59-.37 3.24.84 3.67 2.71l2.83 12.11c-3.84.89-6.09 5.26-5.04 9.75s5.01 7.41 8.83 6.52l2.92 12.54c.38 1.64-.44 3.23-1.84 3.55l-10.7 2.49c-1.05-4.49-5.01-7.41-8.83-6.52-3.84.89-6.09 5.26-5.04 9.75l-10.7 2.49c-1.4.32-2.83-.73-3.22-2.37l-2.92-12.54c-3.84.89-7.78-2.03-8.83-6.52"/><path fill="#53b8e5" fill-rule="evenodd" d="M298.5 108.32a4.15 4.15 0 0 0-5.61-1.38l-5.22-5.77c1.34-1.86.93-4.44-.91-5.8a4.12 4.12 0 0 0-4.63-.16 4.15 4.15 0 0 0 .57 7.33l-1.73 8.44c-.6.08-1.17.28-1.68.59a4.16 4.16 0 0 0-1.32 5.72 4.16 4.16 0 0 0 5.72 1.32 4.16 4.16 0 0 0 1.32-5.72 4.1 4.1 0 0 0-2.33-1.77l1.69-8.25c.73 0 1.45-.2 2.07-.57l5.21 5.77a4.16 4.16 0 0 0 .89 5.8c1.37 1 3.21 1.07 4.64.17a4.16 4.16 0 0 0 1.32-5.72"/><path fill="none" stroke="#000" stroke-linecap="round" stroke-linejoin="round" stroke-width="2.06" d="M298.5 108.32a4.15 4.15 0 0 0-5.61-1.38l-5.22-5.77c1.34-1.86.93-4.44-.91-5.8a4.12 4.12 0 0 0-4.63-.16 4.15 4.15 0 0 0 .57 7.33l-1.73 8.44c-.6.08-1.17.28-1.68.59a4.16 4.16 0 0 0-1.32 5.72 4.16 4.16 0 0 0 5.72 1.32 4.16 4.16 0 0 0 1.32-5.72h0a4.1 4.1 0 0 0-2.33-1.77l1.69-8.25c.73 0 1.45-.2 2.07-.57l5.21 5.77a4.16 4.16 0 0 0 .89 5.8c1.37 1 3.21 1.07 4.64.17a4.16 4.16 0 0 0 1.32-5.72"/><path fill="#389e3f" d="M175.44 59.72c-6.82 3.62-15.31 1.03-18.94-5.79-3.62-6.82-1.03-15.31 5.79-18.93q1.515-.795 3.18-1.2c-2.64 4.62-2.93 10.46-.25 15.5s7.69 8.06 13 8.46c-.84.77-1.78 1.42-2.77 1.96M256.93.52c-4.17-7.83-13.89-10.81-21.72-6.64l-63.35 33.69c-.89.48-1.75 1.04-2.53 1.68-3.12-.09-6.21.64-8.96 2.1-8.82 4.69-12.19 15.69-7.49 24.51s15.69 12.19 24.51 7.49a17.94 17.94 0 0 0 6.75-6.25c.98-.3 1.91-.69 2.81-1.17l63.35-33.69c7.83-4.17 10.81-13.89 6.64-21.72"/><path fill="none" stroke="#fff" stroke-linejoin="round" stroke-width="3.99" d="M248.03-9.2c4.59 1.4 8.42 4.56 10.67 8.79a18.06 18.06 0 0 1-7.46 24.43l-63.35 33.69c-.8.42-1.62.78-2.47 1.08a19.94 19.94 0 0 1-7.1 6.34c-4.89 2.61-10.39 2.98-15.32 1.47s-9.28-4.89-11.89-9.79c-2.61-4.89-2.98-10.4-1.47-15.32s4.89-9.28 9.79-11.89c2.84-1.52 6-2.32 9.23-2.34.72-.54 1.48-1.02 2.27-1.44l63.35-33.7a18.06 18.06 0 0 1 13.76-1.33h-.02Zm-86.21 46.83-.19.14a11.9 11.9 0 0 0-4.24 6.08c-.94 3.04-.62 6.34.87 9.14 1.55 2.92 4.16 4.94 7.09 5.84l.29.09c2.27.63 4.73.6 7.06-.19l.29-.1-.21-.08a17.9 17.9 0 0 1-9.33-8.31c-2.02-3.8-2.62-8.19-1.68-12.39l.05-.21Z"/><path fill="#fff" fill-rule="evenodd" d="M183.04 39.82c4.16 7.83 1.19 17.56-6.64 21.72-7.83 4.17-17.56 1.19-21.72-6.64-4.17-7.83-1.19-17.56 6.64-21.72s17.56-1.19 21.72 6.64"/><path fill="none" stroke="#389e3f" stroke-width="1.28" d="M183.04 39.82c4.16 7.83 1.19 17.56-6.64 21.72-7.83 4.17-17.56 1.19-21.72-6.64-4.17-7.83-1.19-17.56 6.64-21.72s17.56-1.19 21.72 6.64Z"/><path fill="#389e3f" d="m174.2 43.18-11.3-.39c-1.05-.03-1.74 1.07-1.25 1.99l5.31 9.99c.49.93 1.8.97 2.35.08l6-9.59c.55-.89-.06-2.04-1.11-2.08"/><path fill="#fcfcfc" d="M191.43 29.58c-.31-.58-.92-.58-1.43-.31-.51.28-.85.78-.53 1.36l1.15 2.12c.65 1.21.74 2.16.4 3.53a36 36 0 0 1-.81 2.7c-.18.55.15 1.04.64 1.22.43.16 1.11.06 1.3-.48.31-.89.54-1.65.74-2.42.34-1.28.39-1.75.28-2.16h.02c.22.26.67.49 1.92.91.76.25 1.53.48 2.12.64.53.14 1-.28 1.13-.73.13-.48-.03-1.11-.6-1.24-.83-.21-1.64-.46-2.44-.73-1.33-.47-2.08-1.07-2.73-2.28l-1.15-2.12Zm5.75-4.01c-.3-.56-.91-.56-1.42-.29-.5.27-.83.78-.53 1.34l6.24 11.58c.3.56.91.56 1.41.3.51-.28.85-.78.54-1.34l-6.24-11.58Zm10.28-3.5c.47-.25.48-.75.24-1.18s-.65-.7-1.12-.45l-6.28 3.39c-.47.25-.48.75-.24 1.18s.65.71 1.12.45l2.25-1.21.24.44c.49.92.55 1.64.19 2.53-.35.85-.74 1.69-1.14 2.51-.28.56.05 1.06.5 1.29.4.2 1.03.18 1.31-.37.37-.75.7-1.45 1.04-2.26.41-.98.5-1.43.39-1.81h.02c.23.24.58.38 1.62.57.87.16 1.61.28 2.09.33.66.07.99-.45 1.05-.88.07-.53-.18-1.01-.76-1.09-.61-.08-1.43-.2-2.39-.39-.95-.2-1.51-.63-2.01-1.55l-.2-.38 2.1-1.13v.02Zm4.1-1.21-1.27-2.35c-.3-.56-.91-.56-1.41-.3s-.83.78-.53 1.34l3.58 6.63c.3.56.91.56 1.41.3s.83-.78.53-1.34l-1.4-2.6 1.42-.77c.49-.26.49-.75.24-1.22-.24-.45-.66-.71-1.15-.46zm3.57 11.26c.3.56.91.56 1.41.3s.83-.78.53-1.34l-1.78-3.31c-.52-.95-.99-1.08-1.96-.56l-7.23 3.9c-.47.25-.48.75-.24 1.18s.65.7 1.12.45l6.23-3.36c.26-.14.39-.1.53.16l1.4 2.58Zm3.94-13.97c-2.07 1.11-2.7 3.02-1.71 4.85s2.92 2.35 4.99 1.23 2.7-3.02 1.71-4.85-2.92-2.35-4.99-1.22m-4.8-.5c-.47.25-.48.75-.24 1.18s.65.7 1.12.45l6.86-3.7c.47-.25.48-.75.24-1.18s-.65-.7-1.12-.45l-2.37 1.28-.56-1.04c-.3-.56-.91-.56-1.41-.3s-.83.78-.53 1.34l.56 1.04-2.56 1.38Zm7.25 5.02c-.97.52-1.91.29-2.41-.63-.5-.93-.17-1.83.8-2.36s1.91-.29 2.41.63.17 1.83-.8 2.36m2.52-11.59c-.3-.56-.91-.56-1.39-.3-.5.27-.83.78-.53 1.34l6.24 11.58c.3.56.91.56 1.41.3.49-.26.81-.77.51-1.33l-3.29-6.1 1.42-.77c.49-.26.49-.75.24-1.22-.24-.45-.66-.71-1.15-.46l-1.42.77-2.05-3.79Zm8.8-2.35c.26-.14.39-.1.53.16l.47.88c.97 1.8.96 2.39-1.83 7.13-.29.51.07 1.06.5 1.29s1.07.18 1.36-.3c3.08-5.29 3.3-6.54 1.93-9.09l-.9-1.68c-.52-.95-.99-1.08-1.96-.56l-4.55 2.45c-.47.25-.48.75-.23 1.2.24.44.65.71 1.12.45zm5.6-5.42c-.3-.56-.91-.56-1.42-.29-.5.27-.83.78-.53 1.34l6.24 11.58c.3.56.91.56 1.41.3.51-.28.85-.78.54-1.34l-6.24-11.58Z"/><path fill="#ffc161" fill-rule="evenodd" stroke="#000" stroke-linejoin="round" stroke-width="2.77" d="m360.89 177.48 4.01 16.83 10.6 3.47-10.6 3.47-4.01 16.83-4.01-16.83-10.61-3.47 10.6-3.47 4.01-16.83ZM341.02 209.59l3.11 13.61 8.1 2.76-8.1 2.76-3.11 13.61-3.11-13.61-8.1-2.76 8.1-2.76z"/><path fill="none" stroke="#99ffed" stroke-width="7.14" d="m440.31 144.93-18.87 10.46c-3.19 1.77-7.14.75-8.82-2.28a6.03 6.03 0 0 1-.61-4.2c-1.7-.37-3.21-1.4-4.09-2.99-.77-1.37-.92-2.94-.57-4.4-1.62-.4-3.04-1.42-3.88-2.95-.85-1.53-.96-3.28-.44-4.86a6.04 6.04 0 0 1-3.4-2.8c-1.68-3.02-.45-6.92 2.74-8.69l9.93-5.5c-.72-.81-1.44-1.62-2.16-2.44-.52-.59-1.06-1.21-1.68-1.89-2.32-2.62-7.03-11.31-1.7-16.16 1.37-1.25 2.83-1.79 4.31-1.62 2.7.32 4.44 2.89 5.97 5.16.61.89 1.17 1.73 1.7 2.28 3.84 4.05 6.6 6.14 12.78 7.76.58.11 1.16.25 1.72.43l.12.03c.63.15 1.24.4 1.8.74.79.39 1.54.86 2.21 1.38l-2.51 3.22c-.5-.38-1.03-.71-1.6-.98q-.105-.045-.21-.12c-.2-.13-.43-.22-.66-.28l-.16-.04c-.06 0-.12-.03-.18-.04q-.66-.21-1.35-.33a.5.5 0 0 1-.16-.04c-7.12-1.85-10.56-4.45-14.78-8.92-.75-.79-1.44-1.81-2.11-2.79-.89-1.31-2.24-3.29-3.08-3.4-.24-.03-.64.19-1.08.59-2.8 2.54.55 8.79 2.01 10.43.62.7 1.16 1.31 1.68 1.9 1.26 1.43 2.34 2.66 3.85 4.3.76.83.71 2.12-.13 2.88-.12.11-.25.21-.38.28l-12.18 6.75c-1.21.68-1.73 2.08-1.15 3.13s2.04 1.36 3.27.68l2.74-1.52c.98-.54 2.23-.19 2.78.79s.05.11.05.11c.54.98.19 2.23-.79 2.78l-3.05 1.7c-1.21.67-1.73 2.08-1.14 3.12.58 1.05 2.04 1.36 3.26.69l3.06-1.7c.98-.54 2.23-.19 2.78.79s.07.12.07.12c.54.98.19 2.23-.79 2.78l-2.76 1.53c-1.21.67-1.73 2.08-1.15 3.12.58 1.05 2.04 1.36 3.27.69l2.76-1.53c.98-.54 2.23-.19 2.78.79s.06.12.06.12c.54.98.19 2.23-.79 2.78l-2.22 1.23c-1.21.68-1.73 2.08-1.15 3.13s2.04 1.36 3.27.68l18.88-10.46c3.63-2.02 5.81-5.93 5.42-9.74l4.06-.42c.56 5.5-2.38 10.89-7.5 13.73h-.03Z"/><path fill="none" stroke="#99ffed" stroke-width="7.14" d="m452.34 140.59-.69.38c-2.77 1.54-6.48.13-8.28-3.12l-13.59-24.52c-1.8-3.26-1.03-7.15 1.74-8.69l.69-.37c2.77-1.54 6.48-.13 8.28 3.12l13.59 24.52c1.8 3.26 1.03 7.14-1.74 8.68Z"/><path fill="#99ffed" fill-rule="evenodd" d="M400.99 131.67c2.21-2.73 16.25-19.62 16.99-19.52.73.11 23.79-.66 23.79-.66l6.53 15.68s2.62 3.75 1.1 4.66c-1.53.9-13.45 9.08-13.97 9.36s-8.45 11.44-12.15 8.51-22.27-18.03-22.27-18.03"/><path fill="#1d1c17" fill-rule="evenodd" d="m452.34 140.59-.69.38c-2.77 1.54-6.48.13-8.28-3.12l-13.59-24.52c-1.8-3.26-1.03-7.15 1.74-8.69l.69-.37c2.77-1.54 6.48-.13 8.28 3.12l13.59 24.52c1.8 3.26 1.03 7.14-1.74 8.68"/><path fill="none" stroke="#1d1c17" stroke-linecap="round" stroke-linejoin="round" stroke-width="3.57" d="M446.07 132.68c.4 3.87-2.12 7.92-4.34 9.15s-16.49 9.12-20.02 11.08c-2.38 1.32-5.79 2.7-7.32-.06-2.32-4.19 3.37-7.24 3.37-7.24-3.22 1.79-6.1 2.3-7.69-.55-2.33-4.2 3.62-6.78 3.62-6.78s-5.23 3.87-7.91-.96c-2.39-4.31 3.55-6.9 3.55-6.9-5.33 2.96-7.35.04-7.83-.82-1.42-2.56.15-4.7 2.16-5.81 2.01-1.12 11.25-6.32 11.25-6.32s-6.61-7.02-7.88-11.93-.46-8.37 2.74-8.98c3.88-.75 6.26 4.98 8.53 7.9 5.15 6.65 8.93 8.02 11.97 7.39 2.82-.58 5.13 1.59 5.13 1.59l10.67 19.25h0Z"/><path fill="#ffe100" fill-rule="evenodd" stroke="#fff" stroke-linecap="round" stroke-width="4.96" d="M543.57 4.92c15.18 15.18 15.18 39.8 0 54.99-15.18 15.18-39.8 15.18-54.99 0s-15.18-39.8 0-54.99c15.18-15.18 39.8-15.18 54.99 0"/><path fill="none" d="M543.57 4.72c15.18 15.18 15.18 39.8 0 54.99s-39.8 15.18-54.99 0-15.18-39.8 0-54.99c15.18-15.18 39.8-15.18 54.99 0"/><path fill="#1d1c17" fill-rule="evenodd" d="M504.82 30.27c1.84 1.84 1.91 4.75.16 6.5s-4.67 1.68-6.5-.16-1.91-4.75-.16-6.5 4.67-1.69 6.5.16m16.75-16.75c1.84 1.84 1.91 4.75.16 6.5s-4.67 1.69-6.5-.16c-1.84-1.84-1.91-4.75-.16-6.5s4.67-1.69 6.5.16"/><path fill="none" stroke="#1d1c17" stroke-linecap="round" stroke-linejoin="round" stroke-width="1.98" d="M499.09 54.82s17.33 7.3 32.02-7.39 8.44-29.7 8.44-29.7"/><path fill="#ff4868" fill-rule="evenodd" d="M519.46 54.96s3.47 10.26 9.26 7.11c4.63-2.52.82-7.4-1.29-11.45 0 0-4.32 3.17-7.97 4.33"/><path fill="none" stroke="#1d1c17" stroke-linecap="round" stroke-linejoin="round" stroke-width="1.98" d="M519.46 54.96s3.47 10.26 9.26 7.11c4.63-2.52.82-7.4-1.29-11.45 0 0-4.32 3.17-7.97 4.33m6.94 3.39-2.99-5.17"/><path fill="none" stroke="#fff" stroke-linejoin="round" stroke-width="7.06" d="M496.08 164.4c.25-.14.53-.17.8-.09l4.24 1.22c.27.08.5.26.64.51l-.03-.05-.02-.04c-.1-.23-.11-.48-.05-.71l1.22-4.24c.08-.27.26-.5.51-.64l15.84-8.78c.25-.14.53-.17.8-.09l4.24 1.22c.23.07.44.22.58.42l.02.03-.04-.09c-.08-.21-.08-.44-.02-.65l1.22-4.24c.08-.27.26-.5.51-.64l15.84-8.78c.25-.14.53-.17.8-.09l4.24 1.22c.21.06.4.19.54.36l.06.08-.02-.03c-.1-.23-.11-.48-.05-.71l1.22-4.24c.08-.27.26-.5.51-.64l15.84-8.78c.25-.14.53-.17.8-.09l4.24 1.22c.23.07.44.22.58.42l.02.03-.04-.09c-.08-.21-.08-.44-.02-.65l1.22-4.24c.08-.27.26-.5.51-.64l15.84-8.78c.25-.14.53-.17.8-.09l4.24 1.22c.27.08.5.26.64.51l8.78 15.83c.14.24.17.54.09.8l-1.22 4.24c-.08.27-.26.5-.51.64l-15.84 8.78c-.25.14-.53.17-.8.09l-4.24-1.22c-.24-.07-.44-.22-.58-.42l-.02-.03.04.09c.08.2.08.44.02.65l-1.22 4.24c-.08.27-.26.5-.51.64l-15.84 8.78c-.25.14-.53.17-.8.09l-4.24-1.22c-.21-.06-.4-.19-.54-.36l-.06-.08.02.03c.1.23.11.48.05.71l-1.22 4.24c-.08.27-.26.5-.51.64l-15.84 8.78c-.25.14-.53.17-.8.09l-4.24-1.22c-.24-.07-.44-.22-.58-.42l-.02-.03.04.09c.08.21.08.44.02.65l-1.22 4.24c-.08.27-.26.5-.51.64l-15.84 8.78c-.25.14-.53.17-.8.09l-4.24-1.22c-.25-.07-.46-.23-.61-.45.11.23.14.5.07.75l-1.22 4.24c-.08.27-.26.5-.51.64l-15.84 8.78c-.25.14-.53.17-.8.09l-4.24-1.22c-.27-.08-.5-.26-.64-.51l-8.78-15.84a1.02 1.02 0 0 1-.09-.8l1.22-4.24c.08-.27.26-.5.51-.64l15.84-8.78h.02Z"/><path fill="#fa5536" fill-rule="evenodd" d="M594.35 114.7a1.13 1.13 0 0 0-.64-.51l-4.24-1.22c-.27-.08-.56-.05-.8.09l-15.84 8.78c-.24.14-.42.36-.51.64l-1.22 4.24c-.08.27-.05.56.09.8l8.78 15.83c.14.24.36.42.64.51l4.24 1.22c.27.08.56.05.8-.09l15.84-8.78c.24-.14.42-.36.51-.64l1.22-4.24c.08-.27.05-.56-.09-.8l-8.78-15.84Z"/><path fill="#ffc800" fill-rule="evenodd" d="m573.57 131.79-2.36-4.26a1.13 1.13 0 0 0-.64-.51l-4.24-1.22c-.27-.08-.56-.05-.8.09l-15.84 8.78c-.24.14-.42.36-.51.64l-1.22 4.24c-.08.27-.05.56.09.8l8.78 15.84c.14.24.36.42.64.51l4.24 1.22c.27.08.56.05.8-.09l15.84-8.78c.24-.14.42-.36.51-.64l1.22-4.24c.08-.27.05-.56-.09-.8l-2.36-4.26a1.02 1.02 0 0 1-.09-.8l1.19-4.15a.535.535 0 0 0-.36-.66l-4.15-1.19c-.27-.08-.5-.26-.64-.51"/><path fill="#6e5ae6" fill-rule="evenodd" d="m550.42 144.62-2.36-4.26a1.13 1.13 0 0 0-.64-.51l-4.24-1.22c-.27-.08-.56-.05-.8.09l-15.84 8.78c-.24.14-.42.36-.51.64l-1.22 4.24c-.08.27-.05.56.09.8l8.78 15.84c.14.24.36.42.64.51l4.24 1.22c.27.08.56.05.8-.09l15.84-8.78c.24-.14.42-.36.51-.64l1.22-4.24c.08-.27.05-.56-.09-.8l-2.36-4.26a1.02 1.02 0 0 1-.09-.8l1.19-4.15a.535.535 0 0 0-.36-.66l-4.15-1.19c-.27-.08-.5-.26-.64-.51"/><path fill="#5096f5" fill-rule="evenodd" d="m527.27 157.45-2.36-4.26a1.13 1.13 0 0 0-.64-.51l-4.24-1.22c-.27-.08-.56-.05-.8.09l-15.84 8.78c-.24.14-.42.36-.51.64l-1.22 4.24c-.08.27-.05.56.09.8l8.78 15.84c.14.24.36.42.64.51l4.24 1.22c.27.08.56.05.8-.09l15.84-8.78c.24-.14.42-.36.51-.64l1.22-4.24c.08-.27.05-.56-.09-.8l-2.36-4.26a1.02 1.02 0 0 1-.09-.8l1.19-4.15a.535.535 0 0 0-.36-.66l-4.15-1.19c-.27-.08-.5-.26-.64-.51"/><path fill="#32d27d" fill-rule="evenodd" d="m504.12 170.29-2.36-4.26a1.13 1.13 0 0 0-.64-.51l-4.24-1.22c-.27-.08-.56-.05-.8.09l-15.84 8.78c-.24.14-.42.36-.51.64l-1.22 4.24c-.08.27-.05.56.09.8l8.78 15.84c.14.24.36.42.64.51l4.24 1.22c.27.08.56.05.8-.09l15.84-8.78c.24-.14.42-.36.51-.64l1.22-4.24c.08-.27.05-.56-.09-.8l-2.36-4.26a1.02 1.02 0 0 1-.09-.8l1.19-4.15a.535.535 0 0 0-.36-.66l-4.15-1.19c-.27-.08-.5-.26-.64-.51"/><path fill="none" d="M516.35 163.41c-.63.34-1.17.82-1.61 1.39-.23.3-.41.62-.55.96l-.38-.69-1.9 1.05 4.67 8.42 1.94-1.08-2.32-4.19c-.49-.89-.66-1.72-.5-2.47.16-.73.64-1.3 1.46-1.76.67-.37 1.27-.48 1.82-.33.56.15 1.03.56 1.4 1.23l2.75 4.96 2.06-1.14-2.69-4.86c-.65-1.18-1.52-1.91-2.58-2.18-1.07-.27-2.27-.05-3.55.67"/><path fill="#fff" fill-rule="evenodd" stroke="#fff" stroke-linecap="round" stroke-linejoin="round" stroke-width=".76" d="M516.35 163.41c-.63.34-1.17.82-1.61 1.39-.23.3-.41.62-.55.96l-.38-.69-1.9 1.05 4.67 8.42 1.94-1.08-2.32-4.19c-.49-.89-.66-1.72-.5-2.47.16-.73.64-1.3 1.46-1.76.67-.37 1.27-.48 1.82-.33.56.15 1.03.56 1.4 1.23l2.75 4.96 2.06-1.14-2.69-4.86c-.65-1.18-1.52-1.91-2.58-2.18-1.07-.27-2.27-.05-3.55.67"/><path fill="#fff" fill-rule="evenodd" d="m498.55 180.98-.1.58c-.17 1-.63 1.69-1.39 2.11-.67.37-1.3.47-1.92.29-.47-.14-.9-.42-1.28-.87l5.99-3.32-.55-1.05c-.39-.71-.9-1.34-1.52-1.86-.64-.53-1.42-.86-2.32-.99-.92-.14-1.87.06-2.8.58-1.27.7-2.04 1.75-2.28 3.11-.23 1.32.02 2.66.76 3.99.76 1.37 1.8 2.28 3.08 2.7 1.3.42 2.64.27 3.99-.48 1.39-.77 2.27-2.02 2.59-3.68l.1-.51-2.36-.58Zm-5.73-.04c-.08-.4-.08-.82.02-1.22.13-.52.46-.92 1.02-1.24.55-.3 1.06-.37 1.58-.21q.555.165 1.02.66l-3.62 2.01Z"/><path fill="#fefefe" fill-rule="evenodd" d="M495.47 175.87c-.92-.14-1.87.06-2.8.58-1.27.7-2.03 1.74-2.28 3.1-.23 1.31.02 2.65.76 3.99.76 1.37 1.8 2.28 3.08 2.7 1.3.42 2.64.27 3.99-.48 1.39-.77 2.27-2.01 2.59-3.68l.1-.5-2.34-.57-.1.56c-.17 1-.63 1.69-1.39 2.11-.67.37-1.3.47-1.92.29-.48-.14-.91-.43-1.3-.88l5.99-3.32-.54-1.05c-.39-.71-.9-1.34-1.52-1.86-.63-.53-1.41-.86-2.32-.99m-2.65 5.09c-.08-.41-.08-.83.02-1.24.13-.52.46-.93 1.02-1.24.55-.3 1.07-.37 1.59-.21.38.12.72.34 1.02.67z"/><path fill="#fdfdfd" fill-rule="evenodd" d="M495.46 175.87c-.92-.14-1.86.06-2.8.58-1.27.7-2.03 1.74-2.27 3.09-.23 1.31.02 2.65.76 3.98.76 1.36 1.79 2.27 3.07 2.69 1.3.42 2.64.27 3.98-.48 1.39-.77 2.27-2.01 2.58-3.67l.1-.49-2.32-.57-.1.55c-.17 1-.63 1.7-1.4 2.12-.67.37-1.3.47-1.93.3-.49-.14-.92-.44-1.3-.89l5.99-3.32-.54-1.04c-.39-.71-.9-1.34-1.52-1.86-.63-.53-1.41-.86-2.31-.99m-2.64 5.1c-.09-.42-.08-.84 0-1.26.13-.53.46-.93 1.02-1.24.55-.3 1.08-.37 1.6-.21.39.12.74.35 1.04.68l-3.67 2.03Z"/><path fill="#fcfcfc" fill-rule="evenodd" d="M495.46 175.88c-.92-.14-1.86.06-2.79.58-1.27.7-2.02 1.74-2.27 3.08-.23 1.31.02 2.64.76 3.97.76 1.36 1.79 2.27 3.07 2.69 1.3.42 2.63.27 3.97-.48 1.39-.77 2.26-2 2.58-3.66l.09-.48-2.3-.56-.09.55c-.17 1.01-.63 1.71-1.4 2.13-.67.37-1.31.47-1.94.3-.49-.14-.93-.45-1.32-.91l5.99-3.33-.53-1.03c-.39-.71-.9-1.34-1.52-1.86-.63-.53-1.4-.86-2.3-.99m-2.65 5.11a3 3 0 0 1 0-1.27c.13-.53.47-.94 1.03-1.25.55-.3 1.08-.38 1.61-.21.39.12.74.36 1.05.69l-3.69 2.05Z"/><path fill="#fbfbfb" fill-rule="evenodd" d="M495.46 175.89c-.92-.14-1.86.06-2.78.58-1.26.7-2.02 1.74-2.27 3.08-.23 1.3.02 2.64.75 3.96.76 1.36 1.79 2.27 3.06 2.68 1.3.42 2.62.27 3.96-.48 1.39-.77 2.26-2 2.58-3.65l.09-.48-2.28-.56-.09.54c-.17 1.01-.64 1.71-1.41 2.14-.68.38-1.32.47-1.95.3-.49-.14-.94-.45-1.33-.92l6-3.33-.53-1.02c-.39-.71-.9-1.34-1.52-1.86-.63-.53-1.4-.86-2.3-.99M492.8 181c-.1-.42-.1-.86 0-1.29.13-.53.47-.95 1.03-1.26.55-.31 1.08-.38 1.61-.21.39.12.75.36 1.06.7l-3.71 2.05Z"/><path fill="#fafafb" fill-rule="evenodd" d="M495.46 175.9c-.92-.13-1.85.06-2.77.58-1.26.7-2.02 1.73-2.26 3.08-.23 1.3.02 2.64.75 3.96.76 1.36 1.78 2.27 3.05 2.68 1.29.42 2.62.26 3.96-.48 1.39-.77 2.25-1.99 2.57-3.65l.09-.46-2.27-.55-.09.52c-.17 1.02-.64 1.71-1.41 2.14-.68.38-1.32.48-1.96.3-.5-.14-.95-.45-1.34-.93l6-3.33-.52-1.01c-.39-.71-.9-1.33-1.51-1.86-.63-.52-1.4-.86-2.3-.99m-2.66 5.12c-.1-.43-.1-.88 0-1.3.13-.54.47-.95 1.04-1.27q.825-.465 1.62-.21c.4.12.76.36 1.08.71l-3.73 2.07Z"/><path fill="#f9f9fa" fill-rule="evenodd" d="M495.46 175.91c-.92-.13-1.85.06-2.77.58-1.26.7-2.02 1.73-2.25 3.07-.23 1.3.02 2.63.75 3.95.75 1.36 1.78 2.26 3.05 2.68 1.29.42 2.61.26 3.95-.48 1.38-.77 2.24-1.99 2.57-3.65l.09-.45-2.25-.55-.09.52c-.17 1.02-.64 1.72-1.42 2.15-.68.38-1.33.48-1.96.3-.5-.14-.95-.46-1.35-.94l6-3.33-.52-1c-.39-.71-.9-1.33-1.51-1.86-.63-.52-1.39-.86-2.3-.99m-2.66 5.12q-.165-.705 0-1.32c.13-.54.47-.95 1.04-1.27.56-.31 1.09-.38 1.63-.21.4.12.77.37 1.08.73l-3.75 2.08Z"/><path fill="#f8f9f9" fill-rule="evenodd" d="M495.46 175.92c-.92-.13-1.84.06-2.77.58-1.25.7-2.01 1.72-2.25 3.06-.23 1.3.02 2.63.75 3.95.75 1.36 1.77 2.26 3.05 2.67 1.28.42 2.61.26 3.94-.48 1.38-.77 2.24-1.99 2.56-3.64l.09-.45-2.23-.55-.08.51c-.17 1.02-.64 1.72-1.42 2.16-.69.38-1.33.48-1.97.3-.51-.14-.97-.46-1.36-.95l6-3.33-.52-.99c-.38-.7-.89-1.33-1.51-1.85s-1.39-.85-2.29-.98m-2.67 5.12a2.76 2.76 0 0 1 0-1.34c.13-.54.48-.96 1.05-1.27.56-.31 1.1-.38 1.64-.21.41.13.78.37 1.1.74l-3.77 2.09Z"/><path fill="#f7f8f8" fill-rule="evenodd" d="M495.45 175.93c-.91-.13-1.84.06-2.76.57-1.25.69-2.01 1.72-2.24 3.05-.23 1.3.02 2.62.75 3.94.75 1.36 1.77 2.25 3.04 2.67 1.28.42 2.61.26 3.93-.48 1.38-.77 2.24-1.99 2.55-3.63l.08-.44-2.21-.54-.08.49c-.17 1.02-.64 1.73-1.42 2.17-.69.38-1.33.48-1.98.3-.52-.14-.98-.47-1.38-.97l6-3.33-.51-.99c-.39-.7-.89-1.33-1.5-1.85-.62-.52-1.39-.85-2.28-.98m-2.66 5.15c-.11-.48-.11-.93 0-1.36.14-.55.48-.96 1.05-1.28.56-.31 1.11-.39 1.64-.22.41.13.79.38 1.11.75z"/><path fill="#f6f7f7" fill-rule="evenodd" d="M495.45 175.93c-.91-.13-1.83.06-2.75.57-1.24.69-2 1.71-2.24 3.05-.23 1.3.02 2.62.75 3.93.75 1.36 1.77 2.25 3.04 2.66 1.28.42 2.6.26 3.93-.48 1.37-.77 2.24-1.98 2.55-3.62l.08-.43-2.19-.53-.08.48c-.17 1.02-.64 1.74-1.43 2.17-.69.39-1.34.48-1.99.3-.52-.14-.99-.48-1.39-.98l6.01-3.33-.51-.98c-.38-.7-.89-1.32-1.5-1.84-.62-.52-1.39-.85-2.28-.98m-2.68 5.16c-.11-.48-.11-.95-.02-1.37.14-.55.48-.97 1.05-1.29.57-.31 1.11-.39 1.65-.22.42.13.8.39 1.12.77l-3.81 2.11Z"/><path fill="#f5f6f6" fill-rule="evenodd" d="M495.45 175.95c-.91-.13-1.83.06-2.74.57-1.24.69-1.99 1.71-2.24 3.04q-.345 1.95.75 3.93c.75 1.35 1.77 2.24 3.03 2.66 1.27.42 2.59.26 3.92-.48 1.37-.76 2.23-1.98 2.55-3.61l.08-.42-2.17-.53-.08.48c-.17 1.03-.64 1.74-1.44 2.18-.69.39-1.34.48-1.99.3-.52-.15-.99-.48-1.4-.99l6.01-3.33-.5-.97c-.39-.7-.89-1.32-1.5-1.84-.62-.52-1.39-.85-2.27-.98m-2.7 5.13c-.11-.49-.12-.95-.02-1.39.14-.55.49-.98 1.06-1.3s1.11-.39 1.66-.22c.42.13.8.39 1.14.77l-3.83 2.13Z"/><path fill="#f4f5f5" fill-rule="evenodd" d="M495.45 175.96c-.9-.13-1.83.06-2.74.57-1.24.69-1.99 1.71-2.23 3.04-.23 1.29.02 2.61.74 3.92.75 1.35 1.77 2.24 3.02 2.65 1.27.42 2.59.26 3.91-.48 1.37-.76 2.23-1.97 2.55-3.61l.08-.41-2.15-.52-.08.46c-.17 1.03-.65 1.74-1.44 2.18-.7.39-1.35.48-2 .3-.53-.15-1-.49-1.41-1l6.01-3.33-.5-.95c-.38-.7-.89-1.32-1.5-1.84-.62-.52-1.38-.85-2.27-.97m-2.68 5.14c-.12-.5-.12-.97-.02-1.41.14-.55.49-.98 1.06-1.3s1.11-.39 1.67-.22c.43.14.81.39 1.14.79l-3.86 2.14Z"/><path fill="#f3f4f4" fill-rule="evenodd" d="M495.45 175.96c-.9-.13-1.83.06-2.74.57-1.24.69-1.99 1.71-2.22 3.03-.23 1.29.02 2.61.74 3.92.74 1.35 1.77 2.24 3.02 2.64 1.27.42 2.58.26 3.9-.48 1.36-.76 2.22-1.97 2.54-3.61l.08-.4-2.14-.52-.08.45c-.17 1.03-.65 1.75-1.45 2.19-.7.39-1.36.48-2.01.3-.53-.15-1.01-.49-1.42-1.02l6.01-3.33-.49-.95c-.38-.7-.89-1.32-1.49-1.83-.61-.52-1.38-.84-2.27-.97m-2.68 5.17c-.12-.5-.13-.98-.02-1.42.14-.55.49-.99 1.07-1.3.58-.32 1.12-.39 1.67-.22.43.14.83.4 1.16.8l-3.88 2.15Z"/><path fill="#f3f3f4" fill-rule="evenodd" d="M495.45 175.97c-.9-.13-1.82.06-2.73.57-1.24.68-1.99 1.71-2.22 3.02-.23 1.29.02 2.6.74 3.91.74 1.34 1.76 2.24 3.02 2.64 1.27.42 2.58.26 3.9-.48 1.36-.76 2.21-1.96 2.53-3.6l.08-.39-2.11-.52-.08.45c-.17 1.04-.65 1.76-1.45 2.2-.7.39-1.36.48-2.02.3-.54-.15-1.02-.5-1.43-1.02l6.02-3.33-.49-.94c-.38-.7-.89-1.32-1.49-1.83-.61-.52-1.37-.84-2.26-.97m-2.72 5.15c-.12-.51-.13-.99-.02-1.44.14-.56.49-.99 1.07-1.31s1.13-.39 1.68-.22q.66.21 1.17.81z"/><path fill="#f2f2f3" fill-rule="evenodd" d="M495.45 175.99c-.89-.13-1.81.06-2.72.57-1.24.68-1.98 1.7-2.21 3.02-.23 1.28.02 2.6.74 3.9.74 1.34 1.76 2.23 3.01 2.64 1.27.42 2.58.26 3.89-.48 1.36-.75 2.21-1.96 2.53-3.59l.08-.39-2.1-.51-.08.43c-.17 1.04-.65 1.76-1.45 2.21-.7.39-1.36.48-2.02.3-.55-.15-1.03-.5-1.45-1.04l6.02-3.33-.49-.93c-.38-.7-.89-1.32-1.49-1.83-.61-.52-1.37-.84-2.25-.96m-2.72 5.15c-.13-.52-.14-1-.02-1.45.14-.56.49-.99 1.08-1.32.58-.32 1.13-.39 1.69-.22.45.14.84.42 1.18.82l-3.92 2.17Z"/><path fill="#f1f1f2" fill-rule="evenodd" d="M495.45 175.99c-.89-.13-1.81.06-2.72.56-1.23.68-1.97 1.7-2.21 3.01-.23 1.28.02 2.59.74 3.9.74 1.34 1.75 2.23 3 2.64 1.26.42 2.57.26 3.88-.47 1.36-.75 2.21-1.96 2.52-3.58l.08-.38-2.08-.51-.08.42c-.18 1.05-.66 1.77-1.46 2.21-.7.39-1.36.49-2.02.3-.55-.16-1.04-.51-1.46-1.05l6.02-3.33-.48-.92c-.38-.7-.89-1.31-1.49-1.83-.61-.52-1.37-.84-2.25-.96m-2.71 5.16c-.13-.52-.14-1.02-.03-1.48.14-.56.49-1 1.08-1.33.58-.33 1.14-.39 1.7-.22.45.14.85.42 1.2.83l-3.94 2.18Z"/><path fill="#f0f0f1" fill-rule="evenodd" d="M495.45 176c-.89-.13-1.8.06-2.71.56-1.23.68-1.97 1.69-2.21 3-.23 1.28.02 2.59.74 3.89.74 1.33 1.75 2.22 3 2.63 1.26.41 2.56.26 3.87-.47 1.36-.75 2.21-1.96 2.52-3.58l.08-.37-2.06-.5-.07.41c-.18 1.05-.66 1.77-1.46 2.22-.7.39-1.37.49-2.03.3-.55-.16-1.05-.52-1.47-1.06l6.02-3.33-.48-.92c-.38-.7-.88-1.31-1.49-1.83s-1.36-.83-2.24-.96m-2.73 5.19a3 3 0 0 1-.03-1.49c.14-.57.49-1 1.08-1.33.58-.33 1.14-.39 1.71-.22.45.14.86.42 1.2.85l-3.96 2.2Z"/><path fill="#efeff0" fill-rule="evenodd" d="M495.45 176.02c-.89-.13-1.8.06-2.71.56-1.23.68-1.96 1.69-2.2 2.99-.23 1.27.02 2.58.74 3.88.74 1.33 1.75 2.22 2.99 2.62 1.26.41 2.56.25 3.86-.47 1.36-.75 2.2-1.95 2.52-3.57l.07-.36-2.04-.5-.07.4c-.18 1.05-.66 1.78-1.47 2.23-.71.39-1.38.49-2.05.3-.56-.16-1.05-.52-1.49-1.08l6.02-3.33-.47-.91c-.38-.69-.88-1.31-1.49-1.82s-1.36-.83-2.24-.96m-2.7 5.19c-.14-.53-.15-1.04-.04-1.51.14-.57.5-1.01 1.09-1.33.58-.33 1.14-.4 1.71-.22.46.14.87.43 1.22.86l-3.99 2.21Z"/><path fill="#eeeeef" fill-rule="evenodd" d="M495.45 176.02c-.89-.13-1.8.06-2.7.56-1.22.68-1.96 1.68-2.2 2.99-.23 1.27.02 2.58.74 3.88.74 1.33 1.74 2.21 2.99 2.62 1.26.41 2.55.25 3.86-.47 1.35-.75 2.2-1.95 2.51-3.56l.07-.35-2.02-.49-.07.39c-.18 1.05-.67 1.78-1.48 2.24-.71.39-1.38.49-2.05.3-.56-.16-1.07-.52-1.49-1.09l6.02-3.34-.46-.9c-.38-.69-.88-1.31-1.49-1.82s-1.36-.83-2.24-.95m-2.73 5.18c-.14-.54-.15-1.05-.04-1.52.14-.58.5-1.02 1.1-1.34.59-.33 1.15-.4 1.72-.22.46.14.88.44 1.23.87l-4.01 2.22Z"/><path fill="#ededee" fill-rule="evenodd" d="M495.45 176.03c-.89-.13-1.8.06-2.69.56-1.22.67-1.96 1.67-2.19 2.98-.23 1.27.02 2.58.74 3.87.74 1.33 1.74 2.21 2.98 2.61 1.25.41 2.55.25 3.85-.47 1.35-.75 2.19-1.95 2.5-3.55l.07-.34-2-.48-.07.39c-.18 1.05-.67 1.79-1.48 2.24-.71.39-1.39.49-2.05.3-.57-.16-1.08-.53-1.51-1.1l6.02-3.34-.46-.89c-.38-.69-.88-1.3-1.48-1.82-.61-.51-1.36-.83-2.23-.95m-2.75 5.18c-.14-.55-.16-1.06-.04-1.54.14-.58.5-1.02 1.1-1.35.59-.33 1.16-.4 1.73-.22.47.14.89.44 1.24.88l-4.02 2.24Z"/><path fill="#eceded" fill-rule="evenodd" d="M495.44 176.04c-.89-.13-1.79.06-2.68.56-1.22.67-1.96 1.67-2.19 2.98-.23 1.27.02 2.57.74 3.86.74 1.33 1.74 2.21 2.98 2.61 1.25.41 2.54.25 3.84-.47 1.35-.74 2.19-1.94 2.5-3.55l.07-.33-1.99-.48-.07.37c-.18 1.06-.67 1.8-1.49 2.24-.71.39-1.39.5-2.06.31-.58-.16-1.08-.54-1.52-1.11l6.02-3.34-.45-.88c-.38-.69-.88-1.3-1.48-1.81-.61-.51-1.36-.83-2.23-.95m-2.73 5.18c-.15-.55-.17-1.08-.05-1.55.14-.58.5-1.02 1.11-1.36.59-.33 1.16-.4 1.74-.23.48.14.89.45 1.26.89l-4.05 2.24Z"/><path fill="#ebecec" fill-rule="evenodd" d="M495.44 176.05c-.88-.13-1.78.06-2.68.56-1.21.67-1.95 1.67-2.18 2.97-.23 1.27.02 2.57.74 3.86.74 1.33 1.74 2.21 2.97 2.61 1.25.41 2.54.25 3.83-.47 1.34-.74 2.18-1.94 2.49-3.55l.06-.33-1.96-.48-.06.36c-.18 1.06-.67 1.8-1.49 2.25-.72.4-1.39.5-2.07.31-.58-.17-1.09-.55-1.53-1.13l6.03-3.34-.45-.87c-.38-.69-.88-1.3-1.48-1.81-.61-.51-1.35-.83-2.22-.95m-2.74 5.21c-.15-.55-.17-1.08-.05-1.58.14-.58.51-1.02 1.11-1.36.6-.33 1.17-.4 1.74-.23.48.15.91.45 1.27.9l-4.07 2.26Z"/><path fill="#eaebec" fill-rule="evenodd" d="M495.44 176.06c-.88-.13-1.78.06-2.68.56-1.21.67-1.95 1.67-2.17 2.96-.23 1.27.02 2.56.74 3.85.74 1.33 1.74 2.2 2.96 2.61 1.24.41 2.53.25 3.83-.47 1.34-.74 2.18-1.93 2.49-3.54l.06-.31-1.95-.47-.06.36c-.18 1.06-.67 1.8-1.49 2.26-.72.4-1.4.5-2.08.31-.58-.17-1.1-.55-1.54-1.14l6.03-3.34-.45-.86a6.4 6.4 0 0 0-1.47-1.81c-.61-.51-1.35-.83-2.21-.95m-2.76 5.19c-.15-.56-.17-1.1-.05-1.59.14-.58.51-1.03 1.11-1.36s1.17-.41 1.75-.23c.49.15.92.46 1.28.92l-4.09 2.27Z"/><path fill="#e9eaeb" fill-rule="evenodd" d="M495.44 176.07c-.88-.13-1.77.06-2.67.55-1.21.67-1.94 1.67-2.17 2.96-.23 1.27.02 2.55.74 3.84.74 1.32 1.73 2.2 2.96 2.6 1.24.41 2.52.25 3.82-.47 1.34-.74 2.17-1.92 2.49-3.53l.06-.3-1.92-.47-.06.34c-.18 1.07-.67 1.81-1.5 2.27-.72.4-1.4.5-2.08.31-.59-.17-1.11-.55-1.55-1.15l6.03-3.34-.45-.86a6.1 6.1 0 0 0-1.47-1.8c-.6-.5-1.35-.83-2.21-.95m-2.78 5.21c-.16-.57-.17-1.11-.05-1.61.14-.58.51-1.04 1.12-1.37.6-.33 1.17-.41 1.76-.23.49.15.92.46 1.29.92l-4.11 2.28Z"/><path fill="#e8e9ea" fill-rule="evenodd" d="M495.44 176.08c-.88-.13-1.77.06-2.66.55-1.2.67-1.94 1.66-2.17 2.95-.23 1.26.02 2.55.74 3.84.74 1.32 1.73 2.19 2.96 2.59 1.24.41 2.52.25 3.81-.47 1.33-.74 2.17-1.92 2.48-3.52l.06-.3-1.91-.46-.06.33c-.18 1.07-.67 1.81-1.5 2.27-.73.4-1.41.5-2.09.31-.59-.17-1.12-.56-1.57-1.16l6.03-3.34-.44-.85a6.1 6.1 0 0 0-1.47-1.8c-.6-.5-1.34-.82-2.21-.95m-2.77 5.22c-.16-.58-.18-1.12-.05-1.62.14-.59.51-1.04 1.12-1.38.61-.33 1.18-.41 1.77-.23.49.15.93.47 1.3.94z"/><path fill="#e7e8e9" fill-rule="evenodd" d="M495.43 176.09c-.87-.13-1.77.06-2.66.55-1.2.67-1.93 1.66-2.16 2.94-.23 1.26.02 2.55.73 3.83.73 1.32 1.73 2.19 2.95 2.59 1.24.41 2.52.25 3.8-.47 1.33-.74 2.17-1.92 2.48-3.52l.05-.29-1.89-.46-.05.33c-.18 1.07-.67 1.82-1.51 2.28-.73.4-1.42.51-2.1.31-.6-.17-1.13-.56-1.58-1.17l6.04-3.34-.44-.84c-.37-.68-.87-1.3-1.46-1.8-.6-.5-1.34-.82-2.21-.94m-2.75 5.22c-.17-.58-.18-1.13-.06-1.64.14-.59.52-1.05 1.13-1.39.61-.33 1.19-.41 1.77-.23.5.16.94.48 1.31.95l-4.15 2.3Z"/><path fill="#e6e7e8" fill-rule="evenodd" d="M495.43 176.1c-.87-.12-1.77.06-2.65.55-1.2.67-1.92 1.65-2.16 2.93-.23 1.26.02 2.55.73 3.83.73 1.32 1.72 2.18 2.95 2.58 1.24.4 2.51.24 3.8-.47 1.33-.74 2.16-1.92 2.47-3.51l.05-.28-1.87-.45-.05.31c-.18 1.08-.68 1.83-1.52 2.29-.73.4-1.42.51-2.11.31-.61-.17-1.14-.57-1.59-1.18l6.04-3.35-.43-.83c-.37-.68-.87-1.3-1.46-1.8-.6-.5-1.33-.82-2.2-.94m-2.77 5.23c-.17-.58-.19-1.14-.06-1.66.14-.59.52-1.05 1.13-1.39s1.19-.41 1.78-.23c.51.16.95.48 1.33.96z"/><path fill="#fff" fill-rule="evenodd" stroke="#fff" stroke-linejoin="round" stroke-width=".76" d="m538 148.79 1.21 2.2 3.13-1.74 1.26 2.27-3.13 1.74 1.92 3.47c.25.45.52.77.83.85.29.08.55.05.81-.09.22-.12.37-.27.43-.47.08-.27 0-.52-.2-.77l2.05-1.58c.77 1.2.9 2.09.67 3.03-.21.85-.78 1.55-1.71 2.06-.86.47-1.77.57-2.74.29-.95-.28-1.75-.98-2.36-2.09l-1.92-3.46-2.28 1.27-1.26-2.27 2.28-1.27-1.21-2.2 2.23-1.24Z"/><path fill="none" d="M563.79 136.74c-.64.35-1.16.87-1.52 1.5-.17.29-.29.57-.37.85l-.44-.79-1.87 1.04 5.02 9.06 1.96-1.08-2.3-4.15c-.57-1.02-.84-1.97-.82-2.81.02-.79.39-1.37 1.13-1.78.49-.27.97-.3 1.47-.09.52.22.99.7 1.39 1.42l.39.71 1.96-1.08-.42-.74c-.67-1.22-1.51-2.02-2.49-2.37-.99-.36-2.03-.26-3.09.33"/><path fill="#fff" fill-rule="evenodd" stroke="#fff" stroke-linecap="round" stroke-linejoin="round" stroke-width=".76" d="M563.88 136.9c-.64.35-1.16.87-1.52 1.5-.17.29-.29.57-.37.85l-.44-.79-1.87 1.04 5.02 9.06 1.96-1.08-2.3-4.15c-.57-1.02-.84-1.97-.82-2.81.02-.79.39-1.37 1.12-1.78.49-.27.97-.3 1.48-.09.52.22.99.7 1.39 1.42l.39.71 1.96-1.08-.42-.74c-.67-1.22-1.51-2.02-2.49-2.37-.99-.36-2.03-.26-3.09.33"/><path fill="#fff" fill-rule="evenodd" stroke="#fff" stroke-linejoin="round" stroke-width=".76" d="m582.11 124.34 4.68 3.33-.93-5.41 2.46-1.36 1.81 11.28c.14.86.09 1.56-.11 2.09-.22.57-.64 1.04-1.28 1.39l-1.55.79-1.36-2.46c.76-.32 1.07-.47 1.42-.67.33-.33.32-.49.29-.7l-.19-1.42-7.74-5.46 2.51-1.39Zm-89.46 56.96c-.17-.58-.19-1.14-.06-1.66.14-.59.52-1.05 1.14-1.39.61-.34 1.19-.41 1.78-.23.51.16.95.48 1.33.96l-4.18 2.32Zm2.77-5.22c-.87-.12-1.77.06-2.65.55-1.2.67-1.92 1.65-2.16 2.93-.23 1.26.02 2.55.73 3.83.73 1.32 1.72 2.18 2.95 2.58 1.24.4 2.51.25 3.8-.47 1.33-.74 2.16-1.92 2.47-3.51l.05-.28-1.87-.45-.05.31c-.18 1.08-.68 1.83-1.52 2.29-.73.4-1.42.51-2.11.31-.61-.17-1.14-.57-1.59-1.18l6.04-3.35-.43-.83c-.37-.68-.87-1.3-1.46-1.8-.6-.5-1.33-.82-2.2-.94Z"/><path fill="none" d="M491.92 175.08c1.21-.67 2.49-.94 3.76-.76 1.17.17 2.22.62 3.08 1.33.75.63 1.38 1.4 1.89 2.34l.43.83c.18.35.23.73.17 1.08l-.03.15.05.02c.74.3 1.17 1.05 1.08 1.84l-.02.13-.05.27c-.41 2.09-1.55 3.72-3.35 4.72-1.71.94-3.49 1.16-5.2.6-1.67-.55-3-1.72-3.94-3.41-.9-1.62-1.23-3.32-.92-4.99.33-1.81 1.38-3.25 3.04-4.17m.86 1.57c-1.2.67-1.92 1.65-2.16 2.93-.23 1.26.02 2.55.73 3.83.73 1.32 1.72 2.18 2.95 2.58 1.24.4 2.51.25 3.8-.47l.19-.11c1.22-.74 1.99-1.89 2.29-3.4l.05-.28-1.87-.45-.05.31c-.18 1.08-.68 1.83-1.52 2.29-.73.4-1.42.51-2.11.31-.61-.17-1.14-.57-1.59-1.18l6.04-3.35-.43-.83c-.37-.68-.87-1.3-1.46-1.8-.6-.5-1.33-.82-2.2-.94s-1.77.06-2.65.55"/></svg>